<svg xmlns="http://www.w3.org/2000/svg" xmlns:xlink="http://www.w3.org/1999/xlink" width="840" height="277.1"><rect width="840" height="277.1" rx="5" ry="5" class="a"></rect><svg y="0%" x="0%"><circle cx="20" cy="20" r="6" class="b"></circle><circle cx="40" cy="20" r="6" class="c"></circle><circle cx="60" cy="20" r="6" class="d"></circle></svg><svg height="217.10000000000002" viewBox="0 0 80 21.71" width="800" x="15" xmlns="http://www.w3.org/2000/svg" xmlns:xlink="http://www.w3.org/1999/xlink" y="50"><style>.a{fill:rgb(40,45,53)}.b{fill:#ff5f58}.c{fill:#ffbd2e}.d{fill:#18c132}.e{font-family:'Fira Code',Monaco,Consolas,Menlo,'Bitstream Vera Sans Mono','Powerline Symbols',monospace}.f{fill:rgb(185,192,203);white-space:pre}.g{fill:rgb(113,190,242);font-weight:bold;white-space:pre}.h{fill:rgb(168,204,140);white-space:pre}.i{fill:transparent}.j{fill:rgb(111,118,131)}.l{animation-duration:12.243264913559s;animation-iteration-count:infinite;animation-name:k;animation-timing-function:steps(1,end)}@keyframes k{0%{transform:translateX(-0px)}0%{transform:translateX(-80px)}0.3%{transform:translateX(-160px)}0.9%{transform:translateX(-240px)}1.2%{transform:translateX(-320px)}2%{transform:translateX(-400px)}2.3%{transform:translateX(-480px)}2.6%{transform:translateX(-560px)}3%{transform:translateX(-640px)}3.7%{transform:translateX(-720px)}4.2%{transform:translateX(-800px)}4.4%{transform:translateX(-880px)}4.9%{transform:translateX(-960px)}5.2%{transform:translateX(-1040px)}6%{transform:translateX(-1120px)}6.4%{transform:translateX(-1200px)}6.8%{transform:translateX(-1280px)}7.2%{transform:translateX(-1360px)}7.9%{transform:translateX(-1440px)}8.2%{transform:translateX(-1520px)}8.5%{transform:translateX(-1600px)}9.1%{transform:translateX(-1680px)}9.6%{transform:translateX(-1760px)}9.9%{transform:translateX(-1840px)}10.3%{transform:translateX(-1920px)}10.8%{transform:translateX(-2000px)}11.1%{transform:translateX(-2080px)}11.1%{transform:translateX(-2160px)}11.7%{transform:translateX(-2240px)}12.1%{transform:translateX(-2320px)}12.4%{transform:translateX(-2400px)}12.8%{transform:translateX(-2480px)}13.2%{transform:translateX(-2560px)}13.4%{transform:translateX(-2640px)}13.9%{transform:translateX(-2720px)}14.2%{transform:translateX(-2800px)}14.7%{transform:translateX(-2880px)}15.3%{transform:translateX(-2960px)}15.6%{transform:translateX(-3040px)}16%{transform:translateX(-3120px)}16.5%{transform:translateX(-3200px)}16.9%{transform:translateX(-3280px)}17.3%{transform:translateX(-3360px)}17.6%{transform:translateX(-3440px)}18.7%{transform:translateX(-3520px)}19%{transform:translateX(-3600px)}19.5%{transform:translateX(-3680px)}19.9%{transform:translateX(-3760px)}20.3%{transform:translateX(-3840px)}20.6%{transform:translateX(-3920px)}20.9%{transform:translateX(-4000px)}21.3%{transform:translateX(-4080px)}21.8%{transform:translateX(-4160px)}22.3%{transform:translateX(-4240px)}22.8%{transform:translateX(-4320px)}23.4%{transform:translateX(-4400px)}23.9%{transform:translateX(-4480px)}24.2%{transform:translateX(-4560px)}24.7%{transform:translateX(-4640px)}25.2%{transform:translateX(-4720px)}25.7%{transform:translateX(-4800px)}26.3%{transform:translateX(-4880px)}26.8%{transform:translateX(-4960px)}27.1%{transform:translateX(-5040px)}28%{transform:translateX(-5120px)}28%{transform:translateX(-5200px)}38.3%{transform:translateX(-5280px)}38.6%{transform:translateX(-5360px)}38.9%{transform:translateX(-5440px)}39.3%{transform:translateX(-5520px)}39.8%{transform:translateX(-5600px)}40.1%{transform:translateX(-5680px)}40.8%{transform:translateX(-5760px)}41.2%{transform:translateX(-5840px)}41.5%{transform:translateX(-5920px)}41.9%{transform:translateX(-6000px)}42.5%{transform:translateX(-6080px)}42.8%{transform:translateX(-6160px)}43.2%{transform:translateX(-6240px)}43.7%{transform:translateX(-6320px)}44.3%{transform:translateX(-6400px)}44.7%{transform:translateX(-6480px)}45%{transform:translateX(-6560px)}45.5%{transform:translateX(-6640px)}45.8%{transform:translateX(-6720px)}46.1%{transform:translateX(-6800px)}46.7%{transform:translateX(-6880px)}47.2%{transform:translateX(-6960px)}47.2%{transform:translateX(-7040px)}47.5%{transform:translateX(-7120px)}48.2%{transform:translateX(-7200px)}48.5%{transform:translateX(-7280px)}49%{transform:translateX(-7360px)}49.2%{transform:translateX(-7440px)}49.7%{transform:translateX(-7520px)}50.1%{transform:translateX(-7600px)}50.6%{transform:translateX(-7680px)}51%{transform:translateX(-7760px)}51.7%{transform:translateX(-7840px)}52.2%{transform:translateX(-7920px)}52.7%{transform:translateX(-8000px)}53.2%{transform:translateX(-8080px)}53.6%{transform:translateX(-8160px)}54%{transform:translateX(-8240px)}54.3%{transform:translateX(-8320px)}54.8%{transform:translateX(-8400px)}55.1%{transform:translateX(-8480px)}55.6%{transform:translateX(-8560px)}56.2%{transform:translateX(-8640px)}56.8%{transform:translateX(-8720px)}57.3%{transform:translateX(-8800px)}57.8%{transform:translateX(-8880px)}59%{transform:translateX(-8960px)}59.1%{transform:translateX(-9040px)}59.1%{transform:translateX(-9120px)}59.1%{transform:translateX(-9200px)}100%{transform:translateX(-9280px)}}</style><g font-family="&#x27;Fira Code&#x27;,Monaco,Consolas,Menlo,&#x27;Bitstream Vera Sans Mono&#x27;,&#x27;Powerline Symbols&#x27;,monospace" font-size="1.67" class="e"><defs><symbol id="1"><text x="0" y="1.67" class="f">#</text></symbol><symbol id="2"><text x="0" y="1.67" class="f">#</text><text x="2.004" y="1.67" class="f">Create</text></symbol><symbol id="3"><text x="0" y="1.67" class="f">#</text><text x="2.004" y="1.67" class="f">Create</text><text x="9.017999999999999" y="1.67" class="f">R</text></symbol><symbol id="4"><text x="0" y="1.67" class="f">#</text><text x="2.004" y="1.67" class="f">Create</text><text x="9.017999999999999" y="1.67" class="f">R</text><text x="11.021999999999998" y="1.67" class="f">Shiny</text></symbol><symbol id="5"><text x="0" y="1.67" class="f">#</text><text x="2.004" y="1.67" class="f">Create</text><text x="9.017999999999999" y="1.67" class="f">R</text><text x="11.021999999999998" y="1.67" class="f">Shiny</text><text x="17.034" y="1.67" class="f">template</text></symbol><symbol id="6"><text x="0" y="1.67" class="f">&gt;</text></symbol><symbol id="7"><text x="0" y="1.67" class="f">&gt;</text><text x="2.004" y="1.67" class="f">mayoshiny::use_mayoshiny(&quot;my_app&quot;)</text></symbol><symbol id="8"><text x="0" y="1.67" class="f">&gt;</text><text x="2.004" y="1.67" class="f">#</text></symbol><symbol id="9"><text x="0" y="1.67" class="f">&gt;</text><text x="2.004" y="1.67" class="f">#</text><text x="4.008" y="1.67" class="f">View</text></symbol><symbol id="10"><text x="0" y="1.67" class="f">&gt;</text><text x="2.004" y="1.67" class="f">#</text><text x="4.008" y="1.67" class="f">View</text><text x="9.017999999999999" y="1.67" class="f">file</text></symbol><symbol id="11"><text x="0" y="1.67" class="f">&gt;</text><text x="2.004" y="1.67" class="f">#</text><text x="4.008" y="1.67" class="f">View</text><text x="9.017999999999999" y="1.67" class="f">file</text><text x="14.027999999999999" y="1.67" class="f">structure</text></symbol><symbol id="12"><text x="0" y="1.67" class="f">&gt;</text><text x="2.004" y="1.67" class="f">fs::dir_tree(&quot;my_app&quot;)</text></symbol><symbol id="13"><text x="0" y="1.67" class="g">my_app</text></symbol><symbol id="14"><text x="0" y="1.67" class="f">├──</text><text x="4.008" y="1.67" class="f">DESCRIPTION</text></symbol><symbol id="15"><text x="0" y="1.67" class="f">├──</text><text x="4.008" y="1.67" class="h">app.R</text></symbol><symbol id="16"><text x="0" y="1.67" class="f">└──</text><text x="4.008" y="1.67" class="g">data</text></symbol><symbol id="a"><rect height="11" width="80" x="0" y="0" class="i"></rect></symbol><symbol id="b"><rect height="2.171" width="1.1022" class="j"></rect></symbol></defs><rect height="21.71" width="80" class="a"></rect><g class="l"><svg x="0" y="0" width="9360"><svg x="0"><use xlink:href="#a"></use><use xlink:href="#b" x="-0.0040000000000000036" y="0"></use></svg><svg x="80"><use xlink:href="#a"></use><use xlink:href="#b" x="0.996" y="0"></use><use xlink:href="#1" y="0"></use></svg><svg x="160"><use xlink:href="#a"></use><use xlink:href="#b" x="1.996" y="0"></use><use xlink:href="#1" y="0"></use></svg><svg x="240"><use xlink:href="#a"></use><use xlink:href="#b" x="2.996" y="0"></use><text x="0" y="1.67" class="f">#</text><text x="2.004" y="1.67" class="f">C</text></svg><svg x="320"><use xlink:href="#a"></use><use xlink:href="#b" x="3.996" y="0"></use><text x="0" y="1.67" class="f">#</text><text x="2.004" y="1.67" class="f">Cr</text></svg><svg x="400"><use xlink:href="#a"></use><use xlink:href="#b" x="4.996" y="0"></use><text x="0" y="1.67" class="f">#</text><text x="2.004" y="1.67" class="f">Cre</text></svg><svg x="480"><use xlink:href="#a"></use><use xlink:href="#b" x="5.996" y="0"></use><text x="0" y="1.67" class="f">#</text><text x="2.004" y="1.67" class="f">Crea</text></svg><svg x="560"><use xlink:href="#a"></use><use xlink:href="#b" x="6.996" y="0"></use><text x="0" y="1.67" class="f">#</text><text x="2.004" y="1.67" class="f">Creat</text></svg><svg x="640"><use xlink:href="#a"></use><use xlink:href="#b" x="7.996" y="0"></use><use xlink:href="#2" y="0"></use></svg><svg x="720"><use xlink:href="#a"></use><use xlink:href="#b" x="8.996" y="0"></use><use xlink:href="#2" y="0"></use></svg><svg x="800"><use xlink:href="#a"></use><use xlink:href="#b" x="9.996" y="0"></use><use xlink:href="#3" y="0"></use></svg><svg x="880"><use xlink:href="#a"></use><use xlink:href="#b" x="10.996" y="0"></use><use xlink:href="#3" y="0"></use></svg><svg x="960"><use xlink:href="#a"></use><use xlink:href="#b" x="11.996" y="0"></use><text x="0" y="1.67" class="f">#</text><text x="2.004" y="1.67" class="f">Create</text><text x="9.017999999999999" y="1.67" class="f">R</text><text x="11.021999999999998" y="1.67" class="f">S</text></svg><svg x="1040"><use xlink:href="#a"></use><use xlink:href="#b" x="12.996" y="0"></use><text x="0" y="1.67" class="f">#</text><text x="2.004" y="1.67" class="f">Create</text><text x="9.017999999999999" y="1.67" class="f">R</text><text x="11.021999999999998" y="1.67" class="f">Sh</text></svg><svg x="1120"><use xlink:href="#a"></use><use xlink:href="#b" x="13.996" y="0"></use><text x="0" y="1.67" class="f">#</text><text x="2.004" y="1.67" class="f">Create</text><text x="9.017999999999999" y="1.67" class="f">R</text><text x="11.021999999999998" y="1.67" class="f">Shi</text></svg><svg x="1200"><use xlink:href="#a"></use><use xlink:href="#b" x="14.996" y="0"></use><text x="0" y="1.67" class="f">#</text><text x="2.004" y="1.67" class="f">Create</text><text x="9.017999999999999" y="1.67" class="f">R</text><text x="11.021999999999998" y="1.67" class="f">Shin</text></svg><svg x="1280"><use xlink:href="#a"></use><use xlink:href="#b" x="15.996" y="0"></use><use xlink:href="#4" y="0"></use></svg><svg x="1360"><use xlink:href="#a"></use><use xlink:href="#b" x="16.996" y="0"></use><use xlink:href="#4" y="0"></use></svg><svg x="1440"><use xlink:href="#a"></use><use xlink:href="#b" x="17.996" y="0"></use><text x="0" y="1.67" class="f">#</text><text x="2.004" y="1.67" class="f">Create</text><text x="9.017999999999999" y="1.67" class="f">R</text><text x="11.021999999999998" y="1.67" class="f">Shiny</text><text x="17.034" y="1.67" class="f">t</text></svg><svg x="1520"><use xlink:href="#a"></use><use xlink:href="#b" x="18.996" y="0"></use><text x="0" y="1.67" class="f">#</text><text x="2.004" y="1.67" class="f">Create</text><text x="9.017999999999999" y="1.67" class="f">R</text><text x="11.021999999999998" y="1.67" class="f">Shiny</text><text x="17.034" y="1.67" class="f">te</text></svg><svg x="1600"><use xlink:href="#a"></use><use xlink:href="#b" x="19.996" y="0"></use><text x="0" y="1.67" class="f">#</text><text x="2.004" y="1.67" class="f">Create</text><text x="9.017999999999999" y="1.67" class="f">R</text><text x="11.021999999999998" y="1.67" class="f">Shiny</text><text x="17.034" y="1.67" class="f">tem</text></svg><svg x="1680"><use xlink:href="#a"></use><use xlink:href="#b" x="20.996" y="0"></use><text x="0" y="1.67" class="f">#</text><text x="2.004" y="1.67" class="f">Create</text><text x="9.017999999999999" y="1.67" class="f">R</text><text x="11.021999999999998" y="1.67" class="f">Shiny</text><text x="17.034" y="1.67" class="f">temp</text></svg><svg x="1760"><use xlink:href="#a"></use><use xlink:href="#b" x="21.996" y="0"></use><text x="0" y="1.67" class="f">#</text><text x="2.004" y="1.67" class="f">Create</text><text x="9.017999999999999" y="1.67" class="f">R</text><text x="11.021999999999998" y="1.67" class="f">Shiny</text><text x="17.034" y="1.67" class="f">templ</text></svg><svg x="1840"><use xlink:href="#a"></use><use xlink:href="#b" x="22.996" y="0"></use><text x="0" y="1.67" class="f">#</text><text x="2.004" y="1.67" class="f">Create</text><text x="9.017999999999999" y="1.67" class="f">R</text><text x="11.021999999999998" y="1.67" class="f">Shiny</text><text x="17.034" y="1.67" class="f">templa</text></svg><svg x="1920"><use xlink:href="#a"></use><use xlink:href="#b" x="23.996" y="0"></use><text x="0" y="1.67" class="f">#</text><text x="2.004" y="1.67" class="f">Create</text><text x="9.017999999999999" y="1.67" class="f">R</text><text x="11.021999999999998" y="1.67" class="f">Shiny</text><text x="17.034" y="1.67" class="f">templat</text></svg><svg x="2000"><use xlink:href="#a"></use><use xlink:href="#b" x="24.996" y="0"></use><use xlink:href="#5" y="0"></use></svg><svg x="2080"><use xlink:href="#a"></use><use xlink:href="#b" x="-0.0040000000000000036" y="2.146"></use><use xlink:href="#5" y="0"></use></svg><svg x="2160"><use xlink:href="#a"></use><use xlink:href="#b" x="1.996" y="2.146"></use><use xlink:href="#5" y="0"></use><use xlink:href="#6" y="2.171"></use></svg><svg x="2240"><use xlink:href="#a"></use><use xlink:href="#b" x="2.996" y="2.146"></use><use xlink:href="#5" y="0"></use><text x="0" y="3.8409999999999997" class="f">&gt;</text><text x="2.004" y="3.8409999999999997" class="f">m</text></svg><svg x="2320"><use xlink:href="#a"></use><use xlink:href="#b" x="3.996" y="2.146"></use><use xlink:href="#5" y="0"></use><text x="0" y="3.8409999999999997" class="f">&gt;</text><text x="2.004" y="3.8409999999999997" class="f">ma</text></svg><svg x="2400"><use xlink:href="#a"></use><use xlink:href="#b" x="4.996" y="2.146"></use><use xlink:href="#5" y="0"></use><text x="0" y="3.8409999999999997" class="f">&gt;</text><text x="2.004" y="3.8409999999999997" class="f">may</text></svg><svg x="2480"><use xlink:href="#a"></use><use xlink:href="#b" x="5.996" y="2.146"></use><use xlink:href="#5" y="0"></use><text x="0" y="3.8409999999999997" class="f">&gt;</text><text x="2.004" y="3.8409999999999997" class="f">mayo</text></svg><svg x="2560"><use xlink:href="#a"></use><use xlink:href="#b" x="6.996" y="2.146"></use><use xlink:href="#5" y="0"></use><text x="0" y="3.8409999999999997" class="f">&gt;</text><text x="2.004" y="3.8409999999999997" class="f">mayos</text></svg><svg x="2640"><use xlink:href="#a"></use><use xlink:href="#b" x="7.996" y="2.146"></use><use xlink:href="#5" y="0"></use><text x="0" y="3.8409999999999997" class="f">&gt;</text><text x="2.004" y="3.8409999999999997" class="f">mayosh</text></svg><svg x="2720"><use xlink:href="#a"></use><use xlink:href="#b" x="8.996" y="2.146"></use><use xlink:href="#5" y="0"></use><text x="0" y="3.8409999999999997" class="f">&gt;</text><text x="2.004" y="3.8409999999999997" class="f">mayoshi</text></svg><svg x="2800"><use xlink:href="#a"></use><use xlink:href="#b" x="9.996" y="2.146"></use><use xlink:href="#5" y="0"></use><text x="0" y="3.8409999999999997" class="f">&gt;</text><text x="2.004" y="3.8409999999999997" class="f">mayoshin</text></svg><svg x="2880"><use xlink:href="#a"></use><use xlink:href="#b" x="10.996" y="2.146"></use><use xlink:href="#5" y="0"></use><text x="0" y="3.8409999999999997" class="f">&gt;</text><text x="2.004" y="3.8409999999999997" class="f">mayoshiny</text></svg><svg x="2960"><use xlink:href="#a"></use><use xlink:href="#b" x="11.996" y="2.146"></use><use xlink:href="#5" y="0"></use><text x="0" y="3.8409999999999997" class="f">&gt;</text><text x="2.004" y="3.8409999999999997" class="f">mayoshiny:</text></svg><svg x="3040"><use xlink:href="#a"></use><use xlink:href="#b" x="12.996" y="2.146"></use><use xlink:href="#5" y="0"></use><text x="0" y="3.8409999999999997" class="f">&gt;</text><text x="2.004" y="3.8409999999999997" class="f">mayoshiny::</text></svg><svg x="3120"><use xlink:href="#a"></use><use xlink:href="#b" x="13.996" y="2.146"></use><use xlink:href="#5" y="0"></use><text x="0" y="3.8409999999999997" class="f">&gt;</text><text x="2.004" y="3.8409999999999997" class="f">mayoshiny::u</text></svg><svg x="3200"><use xlink:href="#a"></use><use xlink:href="#b" x="14.996" y="2.146"></use><use xlink:href="#5" y="0"></use><text x="0" y="3.8409999999999997" class="f">&gt;</text><text x="2.004" y="3.8409999999999997" class="f">mayoshiny::us</text></svg><svg x="3280"><use xlink:href="#a"></use><use xlink:href="#b" x="15.996" y="2.146"></use><use xlink:href="#5" y="0"></use><text x="0" y="3.8409999999999997" class="f">&gt;</text><text x="2.004" y="3.8409999999999997" class="f">mayoshiny::use</text></svg><svg x="3360"><use xlink:href="#a"></use><use xlink:href="#b" x="16.996" y="2.146"></use><use xlink:href="#5" y="0"></use><text x="0" y="3.8409999999999997" class="f">&gt;</text><text x="2.004" y="3.8409999999999997" class="f">mayoshiny::use_</text></svg><svg x="3440"><use xlink:href="#a"></use><use xlink:href="#b" x="17.996" y="2.146"></use><use xlink:href="#5" y="0"></use><text x="0" y="3.8409999999999997" class="f">&gt;</text><text x="2.004" y="3.8409999999999997" class="f">mayoshiny::use_m</text></svg><svg x="3520"><use xlink:href="#a"></use><use xlink:href="#b" x="18.996" y="2.146"></use><use xlink:href="#5" y="0"></use><text x="0" y="3.8409999999999997" class="f">&gt;</text><text x="2.004" y="3.8409999999999997" class="f">mayoshiny::use_ma</text></svg><svg x="3600"><use xlink:href="#a"></use><use xlink:href="#b" x="19.996" y="2.146"></use><use xlink:href="#5" y="0"></use><text x="0" y="3.8409999999999997" class="f">&gt;</text><text x="2.004" y="3.8409999999999997" class="f">mayoshiny::use_may</text></svg><svg x="3680"><use xlink:href="#a"></use><use xlink:href="#b" x="20.996" y="2.146"></use><use xlink:href="#5" y="0"></use><text x="0" y="3.8409999999999997" class="f">&gt;</text><text x="2.004" y="3.8409999999999997" class="f">mayoshiny::use_mayo</text></svg><svg x="3760"><use xlink:href="#a"></use><use xlink:href="#b" x="21.996" y="2.146"></use><use xlink:href="#5" y="0"></use><text x="0" y="3.8409999999999997" class="f">&gt;</text><text x="2.004" y="3.8409999999999997" class="f">mayoshiny::use_mayos</text></svg><svg x="3840"><use xlink:href="#a"></use><use xlink:href="#b" x="22.996" y="2.146"></use><use xlink:href="#5" y="0"></use><text x="0" y="3.8409999999999997" class="f">&gt;</text><text x="2.004" y="3.8409999999999997" class="f">mayoshiny::use_mayosh</text></svg><svg x="3920"><use xlink:href="#a"></use><use xlink:href="#b" x="23.996" y="2.146"></use><use xlink:href="#5" y="0"></use><text x="0" y="3.8409999999999997" class="f">&gt;</text><text x="2.004" y="3.8409999999999997" class="f">mayoshiny::use_mayoshi</text></svg><svg x="4000"><use xlink:href="#a"></use><use xlink:href="#b" x="24.996" y="2.146"></use><use xlink:href="#5" y="0"></use><text x="0" y="3.8409999999999997" class="f">&gt;</text><text x="2.004" y="3.8409999999999997" class="f">mayoshiny::use_mayoshin</text></svg><svg x="4080"><use xlink:href="#a"></use><use xlink:href="#b" x="25.996" y="2.146"></use><use xlink:href="#5" y="0"></use><text x="0" y="3.8409999999999997" class="f">&gt;</text><text x="2.004" y="3.8409999999999997" class="f">mayoshiny::use_mayoshiny</text></svg><svg x="4160"><use xlink:href="#a"></use><use xlink:href="#b" x="26.996" y="2.146"></use><use xlink:href="#5" y="0"></use><text x="0" y="3.8409999999999997" class="f">&gt;</text><text x="2.004" y="3.8409999999999997" class="f">mayoshiny::use_mayoshiny(</text></svg><svg x="4240"><use xlink:href="#a"></use><use xlink:href="#b" x="27.996" y="2.146"></use><use xlink:href="#5" y="0"></use><text x="0" y="3.8409999999999997" class="f">&gt;</text><text x="2.004" y="3.8409999999999997" class="f">mayoshiny::use_mayoshiny(&quot;</text></svg><svg x="4320"><use xlink:href="#a"></use><use xlink:href="#b" x="28.996" y="2.146"></use><use xlink:href="#5" y="0"></use><text x="0" y="3.8409999999999997" class="f">&gt;</text><text x="2.004" y="3.8409999999999997" class="f">mayoshiny::use_mayoshiny(&quot;m</text></svg><svg x="4400"><use xlink:href="#a"></use><use xlink:href="#b" x="29.996" y="2.146"></use><use xlink:href="#5" y="0"></use><text x="0" y="3.8409999999999997" class="f">&gt;</text><text x="2.004" y="3.8409999999999997" class="f">mayoshiny::use_mayoshiny(&quot;my</text></svg><svg x="4480"><use xlink:href="#a"></use><use xlink:href="#b" x="30.996" y="2.146"></use><use xlink:href="#5" y="0"></use><text x="0" y="3.8409999999999997" class="f">&gt;</text><text x="2.004" y="3.8409999999999997" class="f">mayoshiny::use_mayoshiny(&quot;my_</text></svg><svg x="4560"><use xlink:href="#a"></use><use xlink:href="#b" x="31.996" y="2.146"></use><use xlink:href="#5" y="0"></use><text x="0" y="3.8409999999999997" class="f">&gt;</text><text x="2.004" y="3.8409999999999997" class="f">mayoshiny::use_mayoshiny(&quot;my_a</text></svg><svg x="4640"><use xlink:href="#a"></use><use xlink:href="#b" x="32.996" y="2.146"></use><use xlink:href="#5" y="0"></use><text x="0" y="3.8409999999999997" class="f">&gt;</text><text x="2.004" y="3.8409999999999997" class="f">mayoshiny::use_mayoshiny(&quot;my_ap</text></svg><svg x="4720"><use xlink:href="#a"></use><use xlink:href="#b" x="33.996" y="2.146"></use><use xlink:href="#5" y="0"></use><text x="0" y="3.8409999999999997" class="f">&gt;</text><text x="2.004" y="3.8409999999999997" class="f">mayoshiny::use_mayoshiny(&quot;my_app</text></svg><svg x="4800"><use xlink:href="#a"></use><use xlink:href="#b" x="34.996" y="2.146"></use><use xlink:href="#5" y="0"></use><text x="0" y="3.8409999999999997" class="f">&gt;</text><text x="2.004" y="3.8409999999999997" class="f">mayoshiny::use_mayoshiny(&quot;my_app&quot;</text></svg><svg x="4880"><use xlink:href="#a"></use><use xlink:href="#b" x="35.996" y="2.146"></use><use xlink:href="#5" y="0"></use><use xlink:href="#7" y="2.171"></use></svg><svg x="4960"><use xlink:href="#a"></use><use xlink:href="#b" x="-0.0040000000000000036" y="4.317"></use><use xlink:href="#5" y="0"></use><use xlink:href="#7" y="2.171"></use></svg><svg x="5040"><use xlink:href="#a"></use><use xlink:href="#b" x="1.996" y="4.317"></use><use xlink:href="#5" y="0"></use><use xlink:href="#7" y="2.171"></use><use xlink:href="#6" y="4.342"></use></svg><svg x="5120"><use xlink:href="#a"></use><use xlink:href="#b" x="-0.0040000000000000036" y="6.4879999999999995"></use><use xlink:href="#5" y="0"></use><use xlink:href="#7" y="2.171"></use><use xlink:href="#6" y="4.342"></use></svg><svg x="5200"><use xlink:href="#a"></use><use xlink:href="#b" x="1.996" y="6.4879999999999995"></use><use xlink:href="#5" y="0"></use><use xlink:href="#7" y="2.171"></use><use xlink:href="#6" y="4.342"></use><use xlink:href="#6" y="6.513"></use></svg><svg x="5280"><use xlink:href="#a"></use><use xlink:href="#b" x="2.996" y="6.4879999999999995"></use><use xlink:href="#5" y="0"></use><use xlink:href="#7" y="2.171"></use><use xlink:href="#6" y="4.342"></use><use xlink:href="#8" y="6.513"></use></svg><svg x="5360"><use xlink:href="#a"></use><use xlink:href="#b" x="3.996" y="6.4879999999999995"></use><use xlink:href="#5" y="0"></use><use xlink:href="#7" y="2.171"></use><use xlink:href="#6" y="4.342"></use><use xlink:href="#8" y="6.513"></use></svg><svg x="5440"><use xlink:href="#a"></use><use xlink:href="#b" x="4.996" y="6.4879999999999995"></use><use xlink:href="#5" y="0"></use><use xlink:href="#7" y="2.171"></use><use xlink:href="#6" y="4.342"></use><text x="0" y="8.183" class="f">&gt;</text><text x="2.004" y="8.183" class="f">#</text><text x="4.008" y="8.183" class="f">V</text></svg><svg x="5520"><use xlink:href="#a"></use><use xlink:href="#b" x="5.996" y="6.4879999999999995"></use><use xlink:href="#5" y="0"></use><use xlink:href="#7" y="2.171"></use><use xlink:href="#6" y="4.342"></use><text x="0" y="8.183" class="f">&gt;</text><text x="2.004" y="8.183" class="f">#</text><text x="4.008" y="8.183" class="f">Vi</text></svg><svg x="5600"><use xlink:href="#a"></use><use xlink:href="#b" x="6.996" y="6.4879999999999995"></use><use xlink:href="#5" y="0"></use><use xlink:href="#7" y="2.171"></use><use xlink:href="#6" y="4.342"></use><text x="0" y="8.183" class="f">&gt;</text><text x="2.004" y="8.183" class="f">#</text><text x="4.008" y="8.183" class="f">Vie</text></svg><svg x="5680"><use xlink:href="#a"></use><use xlink:href="#b" x="7.996" y="6.4879999999999995"></use><use xlink:href="#5" y="0"></use><use xlink:href="#7" y="2.171"></use><use xlink:href="#6" y="4.342"></use><use xlink:href="#9" y="6.513"></use></svg><svg x="5760"><use xlink:href="#a"></use><use xlink:href="#b" x="8.996" y="6.4879999999999995"></use><use xlink:href="#5" y="0"></use><use xlink:href="#7" y="2.171"></use><use xlink:href="#6" y="4.342"></use><use xlink:href="#9" y="6.513"></use></svg><svg x="5840"><use xlink:href="#a"></use><use xlink:href="#b" x="9.996" y="6.4879999999999995"></use><use xlink:href="#5" y="0"></use><use xlink:href="#7" y="2.171"></use><use xlink:href="#6" y="4.342"></use><text x="0" y="8.183" class="f">&gt;</text><text x="2.004" y="8.183" class="f">#</text><text x="4.008" y="8.183" class="f">View</text><text x="9.017999999999999" y="8.183" class="f">f</text></svg><svg x="5920"><use xlink:href="#a"></use><use xlink:href="#b" x="10.996" y="6.4879999999999995"></use><use xlink:href="#5" y="0"></use><use xlink:href="#7" y="2.171"></use><use xlink:href="#6" y="4.342"></use><text x="0" y="8.183" class="f">&gt;</text><text x="2.004" y="8.183" class="f">#</text><text x="4.008" y="8.183" class="f">View</text><text x="9.017999999999999" y="8.183" class="f">fi</text></svg><svg x="6000"><use xlink:href="#a"></use><use xlink:href="#b" x="11.996" y="6.4879999999999995"></use><use xlink:href="#5" y="0"></use><use xlink:href="#7" y="2.171"></use><use xlink:href="#6" y="4.342"></use><text x="0" y="8.183" class="f">&gt;</text><text x="2.004" y="8.183" class="f">#</text><text x="4.008" y="8.183" class="f">View</text><text x="9.017999999999999" y="8.183" class="f">fil</text></svg><svg x="6080"><use xlink:href="#a"></use><use xlink:href="#b" x="12.996" y="6.4879999999999995"></use><use xlink:href="#5" y="0"></use><use xlink:href="#7" y="2.171"></use><use xlink:href="#6" y="4.342"></use><use xlink:href="#10" y="6.513"></use></svg><svg x="6160"><use xlink:href="#a"></use><use xlink:href="#b" x="13.996" y="6.4879999999999995"></use><use xlink:href="#5" y="0"></use><use xlink:href="#7" y="2.171"></use><use xlink:href="#6" y="4.342"></use><use xlink:href="#10" y="6.513"></use></svg><svg x="6240"><use xlink:href="#a"></use><use xlink:href="#b" x="14.996" y="6.4879999999999995"></use><use xlink:href="#5" y="0"></use><use xlink:href="#7" y="2.171"></use><use xlink:href="#6" y="4.342"></use><text x="0" y="8.183" class="f">&gt;</text><text x="2.004" y="8.183" class="f">#</text><text x="4.008" y="8.183" class="f">View</text><text x="9.017999999999999" y="8.183" class="f">file</text><text x="14.027999999999999" y="8.183" class="f">s</text></svg><svg x="6320"><use xlink:href="#a"></use><use xlink:href="#b" x="15.996" y="6.4879999999999995"></use><use xlink:href="#5" y="0"></use><use xlink:href="#7" y="2.171"></use><use xlink:href="#6" y="4.342"></use><text x="0" y="8.183" class="f">&gt;</text><text x="2.004" y="8.183" class="f">#</text><text x="4.008" y="8.183" class="f">View</text><text x="9.017999999999999" y="8.183" class="f">file</text><text x="14.027999999999999" y="8.183" class="f">st</text></svg><svg x="6400"><use xlink:href="#a"></use><use xlink:href="#b" x="16.996" y="6.4879999999999995"></use><use xlink:href="#5" y="0"></use><use xlink:href="#7" y="2.171"></use><use xlink:href="#6" y="4.342"></use><text x="0" y="8.183" class="f">&gt;</text><text x="2.004" y="8.183" class="f">#</text><text x="4.008" y="8.183" class="f">View</text><text x="9.017999999999999" y="8.183" class="f">file</text><text x="14.027999999999999" y="8.183" class="f">str</text></svg><svg x="6480"><use xlink:href="#a"></use><use xlink:href="#b" x="17.996" y="6.4879999999999995"></use><use xlink:href="#5" y="0"></use><use xlink:href="#7" y="2.171"></use><use xlink:href="#6" y="4.342"></use><text x="0" y="8.183" class="f">&gt;</text><text x="2.004" y="8.183" class="f">#</text><text x="4.008" y="8.183" class="f">View</text><text x="9.017999999999999" y="8.183" class="f">file</text><text x="14.027999999999999" y="8.183" class="f">stru</text></svg><svg x="6560"><use xlink:href="#a"></use><use xlink:href="#b" x="18.996" y="6.4879999999999995"></use><use xlink:href="#5" y="0"></use><use xlink:href="#7" y="2.171"></use><use xlink:href="#6" y="4.342"></use><text x="0" y="8.183" class="f">&gt;</text><text x="2.004" y="8.183" class="f">#</text><text x="4.008" y="8.183" class="f">View</text><text x="9.017999999999999" y="8.183" class="f">file</text><text x="14.027999999999999" y="8.183" class="f">struc</text></svg><svg x="6640"><use xlink:href="#a"></use><use xlink:href="#b" x="19.996" y="6.4879999999999995"></use><use xlink:href="#5" y="0"></use><use xlink:href="#7" y="2.171"></use><use xlink:href="#6" y="4.342"></use><text x="0" y="8.183" class="f">&gt;</text><text x="2.004" y="8.183" class="f">#</text><text x="4.008" y="8.183" class="f">View</text><text x="9.017999999999999" y="8.183" class="f">file</text><text x="14.027999999999999" y="8.183" class="f">struct</text></svg><svg x="6720"><use xlink:href="#a"></use><use xlink:href="#b" x="20.996" y="6.4879999999999995"></use><use xlink:href="#5" y="0"></use><use xlink:href="#7" y="2.171"></use><use xlink:href="#6" y="4.342"></use><text x="0" y="8.183" class="f">&gt;</text><text x="2.004" y="8.183" class="f">#</text><text x="4.008" y="8.183" class="f">View</text><text x="9.017999999999999" y="8.183" class="f">file</text><text x="14.027999999999999" y="8.183" class="f">structu</text></svg><svg x="6800"><use xlink:href="#a"></use><use xlink:href="#b" x="21.996" y="6.4879999999999995"></use><use xlink:href="#5" y="0"></use><use xlink:href="#7" y="2.171"></use><use xlink:href="#6" y="4.342"></use><text x="0" y="8.183" class="f">&gt;</text><text x="2.004" y="8.183" class="f">#</text><text x="4.008" y="8.183" class="f">View</text><text x="9.017999999999999" y="8.183" class="f">file</text><text x="14.027999999999999" y="8.183" class="f">structur</text></svg><svg x="6880"><use xlink:href="#a"></use><use xlink:href="#b" x="22.996" y="6.4879999999999995"></use><use xlink:href="#5" y="0"></use><use xlink:href="#7" y="2.171"></use><use xlink:href="#6" y="4.342"></use><use xlink:href="#11" y="6.513"></use></svg><svg x="6960"><use xlink:href="#a"></use><use xlink:href="#b" x="-0.0040000000000000036" y="8.658999999999999"></use><use xlink:href="#5" y="0"></use><use xlink:href="#7" y="2.171"></use><use xlink:href="#6" y="4.342"></use><use xlink:href="#11" y="6.513"></use></svg><svg x="7040"><use xlink:href="#a"></use><use xlink:href="#b" x="1.996" y="8.658999999999999"></use><use xlink:href="#5" y="0"></use><use xlink:href="#7" y="2.171"></use><use xlink:href="#6" y="4.342"></use><use xlink:href="#11" y="6.513"></use><use xlink:href="#6" y="8.684"></use></svg><svg x="7120"><use xlink:href="#a"></use><use xlink:href="#b" x="2.996" y="8.658999999999999"></use><use xlink:href="#5" y="0"></use><use xlink:href="#7" y="2.171"></use><use xlink:href="#6" y="4.342"></use><use xlink:href="#11" y="6.513"></use><text x="0" y="10.354" class="f">&gt;</text><text x="2.004" y="10.354" class="f">f</text></svg><svg x="7200"><use xlink:href="#a"></use><use xlink:href="#b" x="3.996" y="8.658999999999999"></use><use xlink:href="#5" y="0"></use><use xlink:href="#7" y="2.171"></use><use xlink:href="#6" y="4.342"></use><use xlink:href="#11" y="6.513"></use><text x="0" y="10.354" class="f">&gt;</text><text x="2.004" y="10.354" class="f">fs</text></svg><svg x="7280"><use xlink:href="#a"></use><use xlink:href="#b" x="4.996" y="8.658999999999999"></use><use xlink:href="#5" y="0"></use><use xlink:href="#7" y="2.171"></use><use xlink:href="#6" y="4.342"></use><use xlink:href="#11" y="6.513"></use><text x="0" y="10.354" class="f">&gt;</text><text x="2.004" y="10.354" class="f">fs:</text></svg><svg x="7360"><use xlink:href="#a"></use><use xlink:href="#b" x="5.996" y="8.658999999999999"></use><use xlink:href="#5" y="0"></use><use xlink:href="#7" y="2.171"></use><use xlink:href="#6" y="4.342"></use><use xlink:href="#11" y="6.513"></use><text x="0" y="10.354" class="f">&gt;</text><text x="2.004" y="10.354" class="f">fs::</text></svg><svg x="7440"><use xlink:href="#a"></use><use xlink:href="#b" x="6.996" y="8.658999999999999"></use><use xlink:href="#5" y="0"></use><use xlink:href="#7" y="2.171"></use><use xlink:href="#6" y="4.342"></use><use xlink:href="#11" y="6.513"></use><text x="0" y="10.354" class="f">&gt;</text><text x="2.004" y="10.354" class="f">fs::d</text></svg><svg x="7520"><use xlink:href="#a"></use><use xlink:href="#b" x="7.996" y="8.658999999999999"></use><use xlink:href="#5" y="0"></use><use xlink:href="#7" y="2.171"></use><use xlink:href="#6" y="4.342"></use><use xlink:href="#11" y="6.513"></use><text x="0" y="10.354" class="f">&gt;</text><text x="2.004" y="10.354" class="f">fs::di</text></svg><svg x="7600"><use xlink:href="#a"></use><use xlink:href="#b" x="8.996" y="8.658999999999999"></use><use xlink:href="#5" y="0"></use><use xlink:href="#7" y="2.171"></use><use xlink:href="#6" y="4.342"></use><use xlink:href="#11" y="6.513"></use><text x="0" y="10.354" class="f">&gt;</text><text x="2.004" y="10.354" class="f">fs::dir</text></svg><svg x="7680"><use xlink:href="#a"></use><use xlink:href="#b" x="9.996" y="8.658999999999999"></use><use xlink:href="#5" y="0"></use><use xlink:href="#7" y="2.171"></use><use xlink:href="#6" y="4.342"></use><use xlink:href="#11" y="6.513"></use><text x="0" y="10.354" class="f">&gt;</text><text x="2.004" y="10.354" class="f">fs::dir_</text></svg><svg x="7760"><use xlink:href="#a"></use><use xlink:href="#b" x="10.996" y="8.658999999999999"></use><use xlink:href="#5" y="0"></use><use xlink:href="#7" y="2.171"></use><use xlink:href="#6" y="4.342"></use><use xlink:href="#11" y="6.513"></use><text x="0" y="10.354" class="f">&gt;</text><text x="2.004" y="10.354" class="f">fs::dir_t</text></svg><svg x="7840"><use xlink:href="#a"></use><use xlink:href="#b" x="11.996" y="8.658999999999999"></use><use xlink:href="#5" y="0"></use><use xlink:href="#7" y="2.171"></use><use xlink:href="#6" y="4.342"></use><use xlink:href="#11" y="6.513"></use><text x="0" y="10.354" class="f">&gt;</text><text x="2.004" y="10.354" class="f">fs::dir_tr</text></svg><svg x="7920"><use xlink:href="#a"></use><use xlink:href="#b" x="12.996" y="8.658999999999999"></use><use xlink:href="#5" y="0"></use><use xlink:href="#7" y="2.171"></use><use xlink:href="#6" y="4.342"></use><use xlink:href="#11" y="6.513"></use><text x="0" y="10.354" class="f">&gt;</text><text x="2.004" y="10.354" class="f">fs::dir_tre</text></svg><svg x="8000"><use xlink:href="#a"></use><use xlink:href="#b" x="13.996" y="8.658999999999999"></use><use xlink:href="#5" y="0"></use><use xlink:href="#7" y="2.171"></use><use xlink:href="#6" y="4.342"></use><use xlink:href="#11" y="6.513"></use><text x="0" y="10.354" class="f">&gt;</text><text x="2.004" y="10.354" class="f">fs::dir_tree</text></svg><svg x="8080"><use xlink:href="#a"></use><use xlink:href="#b" x="14.996" y="8.658999999999999"></use><use xlink:href="#5" y="0"></use><use xlink:href="#7" y="2.171"></use><use xlink:href="#6" y="4.342"></use><use xlink:href="#11" y="6.513"></use><text x="0" y="10.354" class="f">&gt;</text><text x="2.004" y="10.354" class="f">fs::dir_tree(</text></svg><svg x="8160"><use xlink:href="#a"></use><use xlink:href="#b" x="15.996" y="8.658999999999999"></use><use xlink:href="#5" y="0"></use><use xlink:href="#7" y="2.171"></use><use xlink:href="#6" y="4.342"></use><use xlink:href="#11" y="6.513"></use><text x="0" y="10.354" class="f">&gt;</text><text x="2.004" y="10.354" class="f">fs::dir_tree(&quot;</text></svg><svg x="8240"><use xlink:href="#a"></use><use xlink:href="#b" x="16.996" y="8.658999999999999"></use><use xlink:href="#5" y="0"></use><use xlink:href="#7" y="2.171"></use><use xlink:href="#6" y="4.342"></use><use xlink:href="#11" y="6.513"></use><text x="0" y="10.354" class="f">&gt;</text><text x="2.004" y="10.354" class="f">fs::dir_tree(&quot;m</text></svg><svg x="8320"><use xlink:href="#a"></use><use xlink:href="#b" x="17.996" y="8.658999999999999"></use><use xlink:href="#5" y="0"></use><use xlink:href="#7" y="2.171"></use><use xlink:href="#6" y="4.342"></use><use xlink:href="#11" y="6.513"></use><text x="0" y="10.354" class="f">&gt;</text><text x="2.004" y="10.354" class="f">fs::dir_tree(&quot;my</text></svg><svg x="8400"><use xlink:href="#a"></use><use xlink:href="#b" x="18.996" y="8.658999999999999"></use><use xlink:href="#5" y="0"></use><use xlink:href="#7" y="2.171"></use><use xlink:href="#6" y="4.342"></use><use xlink:href="#11" y="6.513"></use><text x="0" y="10.354" class="f">&gt;</text><text x="2.004" y="10.354" class="f">fs::dir_tree(&quot;my_</text></svg><svg x="8480"><use xlink:href="#a"></use><use xlink:href="#b" x="19.996" y="8.658999999999999"></use><use xlink:href="#5" y="0"></use><use xlink:href="#7" y="2.171"></use><use xlink:href="#6" y="4.342"></use><use xlink:href="#11" y="6.513"></use><text x="0" y="10.354" class="f">&gt;</text><text x="2.004" y="10.354" class="f">fs::dir_tree(&quot;my_a</text></svg><svg x="8560"><use xlink:href="#a"></use><use xlink:href="#b" x="20.996" y="8.658999999999999"></use><use xlink:href="#5" y="0"></use><use xlink:href="#7" y="2.171"></use><use xlink:href="#6" y="4.342"></use><use xlink:href="#11" y="6.513"></use><text x="0" y="10.354" class="f">&gt;</text><text x="2.004" y="10.354" class="f">fs::dir_tree(&quot;my_ap</text></svg><svg x="8640"><use xlink:href="#a"></use><use xlink:href="#b" x="21.996" y="8.658999999999999"></use><use xlink:href="#5" y="0"></use><use xlink:href="#7" y="2.171"></use><use xlink:href="#6" y="4.342"></use><use xlink:href="#11" y="6.513"></use><text x="0" y="10.354" class="f">&gt;</text><text x="2.004" y="10.354" class="f">fs::dir_tree(&quot;my_app</text></svg><svg x="8720"><use xlink:href="#a"></use><use xlink:href="#b" x="22.996" y="8.658999999999999"></use><use xlink:href="#5" y="0"></use><use xlink:href="#7" y="2.171"></use><use xlink:href="#6" y="4.342"></use><use xlink:href="#11" y="6.513"></use><text x="0" y="10.354" class="f">&gt;</text><text x="2.004" y="10.354" class="f">fs::dir_tree(&quot;my_app&quot;</text></svg><svg x="8800"><use xlink:href="#a"></use><use xlink:href="#b" x="23.996" y="8.658999999999999"></use><use xlink:href="#5" y="0"></use><use xlink:href="#7" y="2.171"></use><use xlink:href="#6" y="4.342"></use><use xlink:href="#11" y="6.513"></use><use xlink:href="#12" y="8.684"></use></svg><svg x="8880"><use xlink:href="#a"></use><use xlink:href="#b" x="-0.0040000000000000036" y="10.83"></use><use xlink:href="#5" y="0"></use><use xlink:href="#7" y="2.171"></use><use xlink:href="#6" y="4.342"></use><use xlink:href="#11" y="6.513"></use><use xlink:href="#12" y="8.684"></use></svg><svg x="8960"><use xlink:href="#a"></use><use xlink:href="#b" x="-0.0040000000000000036" y="13.001"></use><use xlink:href="#5" y="0"></use><use xlink:href="#7" y="2.171"></use><use xlink:href="#6" y="4.342"></use><use xlink:href="#11" y="6.513"></use><use xlink:href="#12" y="8.684"></use><use xlink:href="#13" y="10.855"></use></svg><svg x="9040"><use xlink:href="#a"></use><use xlink:href="#b" x="-0.0040000000000000036" y="15.171999999999999"></use><use xlink:href="#5" y="0"></use><use xlink:href="#7" y="2.171"></use><use xlink:href="#6" y="4.342"></use><use xlink:href="#11" y="6.513"></use><use xlink:href="#12" y="8.684"></use><use xlink:href="#13" y="10.855"></use><use xlink:href="#14" y="13.026"></use></svg><svg x="9120"><use xlink:href="#a"></use><use xlink:href="#b" x="-0.0040000000000000036" y="17.343"></use><use xlink:href="#5" y="0"></use><use xlink:href="#7" y="2.171"></use><use xlink:href="#6" y="4.342"></use><use xlink:href="#11" y="6.513"></use><use xlink:href="#12" y="8.684"></use><use xlink:href="#13" y="10.855"></use><use xlink:href="#14" y="13.026"></use><use xlink:href="#15" y="15.197"></use></svg><svg x="9200"><use xlink:href="#a"></use><use xlink:href="#b" x="-0.0040000000000000036" y="19.514000000000003"></use><use xlink:href="#5" y="0"></use><use xlink:href="#7" y="2.171"></use><use xlink:href="#6" y="4.342"></use><use xlink:href="#11" y="6.513"></use><use xlink:href="#12" y="8.684"></use><use xlink:href="#13" y="10.855"></use><use xlink:href="#14" y="13.026"></use><use xlink:href="#15" y="15.197"></use><use xlink:href="#16" y="17.368"></use></svg><svg x="9280"><use xlink:href="#a"></use><use xlink:href="#b" x="-0.0040000000000000036" y="19.514000000000003"></use><use xlink:href="#5" y="0"></use><use xlink:href="#7" y="2.171"></use><use xlink:href="#6" y="4.342"></use><use xlink:href="#11" y="6.513"></use><use xlink:href="#12" y="8.684"></use><use xlink:href="#13" y="10.855"></use><use xlink:href="#14" y="13.026"></use><use xlink:href="#15" y="15.197"></use><use xlink:href="#16" y="17.368"></use></svg></svg></g></g></svg></svg>